<?xml version="1.0" encoding="utf-8"?>
<!-- Generator: Adobe Illustrator 26.5.0, SVG Export Plug-In . SVG Version: 6.00 Build 0)  -->
<svg version="1.1" id="Camada_1" xmlns="http://www.w3.org/2000/svg" xmlns:xlink="http://www.w3.org/1999/xlink" x="0px" y="0px"
	 viewBox="0 0 149.6 60.3" style="enable-background:new 0 0 149.6 60.3;" xml:space="preserve">
<style type="text/css">
	.st0{fill:url(#SVGID_1_);}
</style>
<g>
	<linearGradient id="SVGID_1_" gradientUnits="userSpaceOnUse" x1="2.325" y1="30.3307" x2="55.5402" y2="30.3307">
		<stop  offset="0" style="stop-color:#FFFF00"/>
		<stop  offset="1" style="stop-color:#009E0B"/>
	</linearGradient>
	<path class="st0" d="M39.5,8.9c0.9,0,4.9,0.2,8.6,3.1c4.5,3.6,6.8,9.8,6.8,18.3c0,6.5-2.7,13-7,16.6c-3.6,3.1-7.9,4.7-12.7,4.7
		c-4.2,0-11.3-1-24.5-9.2C3.3,37.9,2.7,34,3,32.2c0.3-2,2-3.6,4.2-4.2c7.8-1.9,12.8-6.7,17.3-10.9C29.2,12.7,33.3,8.9,39.5,8.9
		C39.5,8.9,39.5,8.9,39.5,8.9C39.5,8.9,39.5,8.9,39.5,8.9 M39.5,8.3C39.5,8.3,39.5,8.3,39.5,8.3C27,8.3,22.6,23.5,7,27.4
		c-5.1,1.3-8.6,8.1,3.4,15.6c7.7,4.8,16.5,9.3,24.8,9.3c4.6,0,9.1-1.4,13.1-4.9c4.5-3.9,7.2-10.7,7.2-17.1
		C55.5,9.6,42.1,8.3,39.5,8.3L39.5,8.3z M39.7,11.1c0.8,0,4.4,0.2,7.6,2.8c4,3.2,6.1,8.7,6.1,16.3c0,5.8-2.4,11.6-6.2,14.8
		c-3.2,2.8-7,4.2-11.3,4.2c-3.8,0-10.1-0.9-21.8-8.2c-6.6-4.2-7.1-7.5-6.9-9.2c0.3-1.7,1.7-3.2,3.7-3.7c6.9-1.7,11.4-6,15.4-9.7
		C30.5,14.5,34.1,11.1,39.7,11.1 M39.6,10.5C39.6,10.5,39.6,10.5,39.6,10.5c-11.2,0-15.1,13.6-29,17.1c-4.6,1.2-7.7,7.2,3,13.9
		c6.9,4.3,14.7,8.3,22.2,8.3c4.1,0,8.1-1.2,11.7-4.4c4-3.5,6.4-9.6,6.4-15.3C54,11.6,41.9,10.5,39.6,10.5L39.6,10.5z M39.8,13.2
		c0.7,0,3.8,0.2,6.7,2.4c3.5,2.8,5.3,7.6,5.3,14.3c0,5.1-2.1,10.2-5.4,13c-2.8,2.4-6.2,3.7-9.9,3.7c-3.3,0-8.9-0.8-19.2-7.2
		c-5.8-3.6-6.2-6.6-6-8.1c0.2-1.5,1.5-2.8,3.3-3.2c6-1.5,10-5.2,13.5-8.5C31.7,16.2,35,13.2,39.8,13.2 M39.8,12.6
		C39.8,12.6,39.8,12.6,39.8,12.6c-9.9,0-13.3,12-25.6,15.1c-4,1-6.7,6.4,2.7,12.3c6,3.8,13,7.3,19.5,7.3c3.6,0,7.2-1.1,10.3-3.8
		c3.5-3.1,5.6-8.5,5.6-13.5C52.4,13.7,41.8,12.6,39.8,12.6L39.8,12.6z M39.9,15.4c0.6,0,3.3,0.2,5.7,2.1c3,2.4,4.6,6.6,4.6,12.3
		c0,4.3-1.8,8.7-4.7,11.2c-2.4,2.1-5.3,3.2-8.5,3.2c-2.9,0-7.7-0.7-16.5-6.2c-4.9-3.1-5.3-5.7-5.1-6.9c0.2-1.3,1.3-2.4,2.8-2.8
		c5.2-1.3,8.6-4.5,11.6-7.3C33,18,35.8,15.4,39.9,15.4 M39.9,14.8C39.9,14.8,39.9,14.8,39.9,14.8c-8.5,0-11.5,10.4-22.1,13
		c-3.5,0.9-5.8,5.5,2.3,10.6c5.2,3.3,11.2,6.3,16.9,6.3c3.2,0,6.2-0.9,8.9-3.3c3.1-2.7,4.9-7.3,4.9-11.7
		C50.8,15.7,41.7,14.8,39.9,14.8L39.9,14.8z M40.1,17.5c0.5,0,2.7,0.1,4.8,1.8c2.5,2,3.8,5.5,3.8,10.3c0,3.6-1.5,7.3-3.9,9.4
		c-2,1.8-4.4,2.7-7.1,2.7c-2.4,0-6.4-0.6-13.8-5.2c-4.1-2.6-4.4-4.7-4.2-5.8c0.2-1.1,1.1-2,2.4-2.3c4.3-1.1,7.2-3.8,9.7-6.1
		C34.3,19.7,36.6,17.6,40.1,17.5 M40.1,16.9C40,16.9,40,16.9,40.1,16.9c-7.2,0-9.7,8.8-18.7,11c-2.9,0.7-4.9,4.7,1.9,9
		c4.4,2.8,9.5,5.4,14.3,5.4c2.7,0,5.2-0.8,7.5-2.8c2.6-2.2,4.1-6.2,4.1-9.8C49.3,17.7,41.5,16.9,40.1,16.9L40.1,16.9z M40.2,19.7
		c0.4,0,2.2,0.1,3.8,1.4c2,1.6,3,4.4,3,8.3c0,2.9-1.2,5.9-3.2,7.6c-1.6,1.4-3.6,2.1-5.7,2.1c-1.9,0-5.2-0.5-11.2-4.2
		c-3.3-2.1-3.5-3.8-3.4-4.7c0.2-0.9,0.9-1.6,1.9-1.9c3.5-0.9,5.8-3,7.8-4.9C35.5,21.5,37.4,19.7,40.2,19.7 M40.2,19.1
		C40.2,19.1,40.2,19.1,40.2,19.1c-5.9,0-7.9,7.1-15.2,9c-2.4,0.6-4,3.8,1.6,7.3c3.6,2.3,7.7,4.4,11.6,4.4c2.2,0,4.3-0.7,6.2-2.3
		c2.1-1.8,3.4-5,3.4-8C47.7,19.7,41.4,19.1,40.2,19.1L40.2,19.1z M40.3,21.8c0.3,0,1.7,0.1,2.9,1.1c1.5,1.2,2.3,3.4,2.3,6.3
		c0,2.2-1,4.5-2.4,5.7c-1.2,1.1-2.7,1.6-4.4,1.6c-1.5,0-4-0.4-8.5-3.2c-2.4-1.6-2.6-2.9-2.5-3.5c0.1-0.7,0.7-1.2,1.4-1.4
		c2.6-0.7,4.4-2.3,5.9-3.8C36.8,23.2,38.2,21.9,40.3,21.8 M40.3,21.2C40.3,21.2,40.3,21.2,40.3,21.2c-4.5,0-6.1,5.5-11.8,6.9
		c-1.9,0.5-3.1,2.9,1.2,5.7c2.8,1.7,6,3.4,9,3.4c1.7,0,3.3-0.5,4.8-1.8c1.6-1.4,2.6-3.9,2.6-6.2C46.1,21.7,41.3,21.2,40.3,21.2
		L40.3,21.2z M40.5,24c0.2,0,1.1,0.1,1.9,0.8c1,0.8,1.5,2.3,1.5,4.3c0,1.5-0.7,3.1-1.6,3.9c-0.8,0.7-1.8,1.1-3,1.1
		c-1,0-2.7-0.3-5.8-2.2c-1.6-1.1-1.7-1.9-1.6-2.4c0.1-0.5,0.5-0.8,1-1c1.8-0.5,3-1.6,4-2.6C38.1,25,39,24,40.5,24 M40.5,23.4
		C40.5,23.4,40.5,23.4,40.5,23.4c-3.2,0-4.3,3.9-8.3,4.9c-1.3,0.3-2.2,2.1,0.9,4c2,1.2,4.2,2.4,6.4,2.4c1.2,0,2.3-0.4,3.4-1.3
		c1.2-1,1.8-2.8,1.8-4.4C44.6,23.7,41.1,23.4,40.5,23.4L40.5,23.4z M40.6,26.2c0.1,0,0.6,0.1,1,0.4c0.5,0.5,0.8,1.2,0.8,2.3
		c0,0.8-0.4,1.7-0.9,2.1c-0.4,0.4-1,0.6-1.6,0.6c-0.6,0-1.5-0.2-3.2-1.2c-0.8-0.6-0.8-1-0.7-1.2c0.1-0.2,0.3-0.4,0.5-0.5
		c0.9-0.3,1.6-0.9,2.1-1.4C39.3,26.7,39.9,26.2,40.6,26.2 M40.6,25.5C40.6,25.5,40.6,25.5,40.6,25.5c-1.9,0-2.5,2.3-4.9,2.9
		c-0.8,0.2-1.3,1.2,0.5,2.3c1.1,0.7,2.5,1.4,3.7,1.4c0.7,0,1.4-0.2,2-0.7c0.7-0.6,1.1-1.6,1.1-2.6C43,25.7,41,25.5,40.6,25.5
		L40.6,25.5z M40.7,28.3c0,0,0.1,0.1,0.1,0.4c0,0.1-0.1,0.3-0.1,0.3c-0.1,0-0.1,0.1-0.2,0.1c-0.1,0-0.3-0.1-0.5-0.2
		c0.2-0.1,0.3-0.2,0.4-0.4C40.6,28.4,40.7,28.3,40.7,28.3 M40.7,27.7C40.7,27.7,40.7,27.7,40.7,27.7c-0.5,0-0.7,0.7-1.4,0.8
		c-0.2,0.1-0.4,0.4,0.1,0.7c0.3,0.2,0.7,0.4,1.1,0.4c0.2,0,0.4-0.1,0.6-0.2c0.2-0.2,0.3-0.5,0.3-0.8C41.4,27.8,40.9,27.7,40.7,27.7
		L40.7,27.7z"/>
	<g>
		<g>
			<path d="M68.7,39.8v1.5h-7.3v-1.5H68.7z"/>
			<path d="M70.4,37.7h1.9c0.3,1.3,1.2,2.1,2.6,2.1c1.2,0,2-0.6,2-1.5c0-0.9-0.5-1.4-1.7-1.7L73,36c-1.6-0.4-2.4-1.6-2.4-3.3
				c0-2.3,1.7-3.4,3.8-3.4c2.4,0,3.8,1.4,4.1,3.3h-1.9c-0.2-1-1-1.5-2.2-1.5c-1.4,0-2,0.7-2,1.6c0,0.9,0.6,1.4,1.3,1.6l2,0.5
				c1.9,0.5,2.9,1.6,2.9,3.5s-1.4,3.3-3.9,3.3C72,41.5,70.5,39.9,70.4,37.7z"/>
			<path d="M80.2,33.5c0-2.6,1.7-4.2,4.3-4.2c2.5,0,4.3,1.6,4.3,4.2v3.8c0,2.6-1.7,4.2-4.3,4.2c-2.5,0-4.3-1.6-4.3-4.2V33.5z
				 M86.9,33.5c0-1.7-1.3-2.4-2.4-2.4c-1.2,0-2.4,0.7-2.4,2.4v3.8c0,1.7,1.3,2.4,2.4,2.4c1.2,0,2.4-0.7,2.4-2.4V33.5z"/>
			<path d="M90.9,29.4h1.8v10.1h5.2v1.8h-7V29.4z"/>
			<path d="M105.9,29.4h1.8v7.9c0,2.6-1.7,4.2-4.3,4.2c-2.5,0-4.3-1.6-4.3-4.2v-7.9h1.8v7.9c0,1.7,1.3,2.4,2.4,2.4
				c1.2,0,2.4-0.7,2.4-2.4V29.4z"/>
			<path d="M113.2,41.5c-2.1-0.3-3.5-1.8-3.5-4.1v-3.8c0-2.6,1.7-4.2,4.3-4.2c2.4,0,4.1,1.5,4.2,3.9h-1.8c-0.2-1.4-1.3-2.1-2.4-2.1
				c-1.2,0-2.4,0.7-2.4,2.4v3.8c0,1.7,1.3,2.4,2.4,2.4c1.1,0,2.3-0.6,2.4-2.1h1.8c-0.1,2.1-1.4,3.5-3.4,3.8l-0.6,2.6h-2L113.2,41.5z
				"/>
			<path d="M119.8,33.5c0-2.6,1.7-4.2,4.3-4.2s4.3,1.6,4.3,4.2v3.8c0,2.6-1.7,4.2-4.3,4.2s-4.3-1.6-4.3-4.2V33.5z M124,26.9l0.6,0.3
				c0.1,0.1,0.2,0.1,0.3,0.1c0.2,0,0.4-0.2,0.5-0.5h1.5c-0.3,1.7-1.3,2-1.9,2c-0.3,0-0.6,0-0.9-0.1l-0.6-0.3
				c-0.1-0.1-0.2-0.1-0.3-0.1c-0.2,0-0.4,0.2-0.5,0.5h-1.5c0.3-1.7,1.3-2,1.9-2C123.4,26.7,123.7,26.7,124,26.9z M126.6,33.5
				c0-1.7-1.3-2.4-2.4-2.4c-1.2,0-2.4,0.7-2.4,2.4v3.8c0,1.7,1.3,2.4,2.4,2.4c1.2,0,2.4-0.7,2.4-2.4V33.5z"/>
			<path d="M132.4,34.4h5.2v1.8h-5.2v3.3h5.2v1.8h-7V29.4h7v1.8h-5.2V34.4z"/>
			<path d="M139,37.7h1.9c0.3,1.3,1.2,2.1,2.6,2.1c1.2,0,2-0.6,2-1.5c0-0.9-0.5-1.4-1.7-1.7l-2.1-0.5c-1.6-0.4-2.4-1.6-2.4-3.3
				c0-2.3,1.7-3.4,3.8-3.4c2.4,0,3.8,1.4,4.1,3.3h-1.9c-0.2-1-1-1.5-2.2-1.5c-1.4,0-2,0.7-2,1.6c0,0.9,0.6,1.4,1.3,1.6l2,0.5
				c1.9,0.5,2.9,1.6,2.9,3.5s-1.4,3.3-3.9,3.3C140.7,41.5,139.2,39.9,139,37.7z"/>
		</g>
	</g>
	<g>
		<path d="M54.1,20.1c0.2,0.6,0.4,1.2,0.5,1.9c2.1,3.5,2.9,7.4,2.2,11.6c-1.1,6.8-5.3,12-12.5,15.3c-7,3.3-14.9,4-19,4.1
			c-0.5,0-0.9,0-1.3,0c-8.1,0-13.2-1.7-14.8-4.9c-1.4-2.8-0.1-6.7,3.8-11.8c3.7-4.8,7-10.6,5.8-19.8c-0.4-3-0.1-5.1,0.8-6.5
			c1.1-1.7,3.2-2.5,6.7-2.5c0.3,0,0.7,0,1,0c2.3,0.1,5.2,0.6,8.1,1.5c0.4-0.1,0.7-0.2,1.1-0.3c-3.5-1.1-6.7-1.7-9.2-1.8
			c-0.4,0-0.7,0-1,0c-3.4,0-5.9,0.7-7.2,2.8c-1,1.5-1.3,3.8-0.9,6.9c1.2,8.9-2,14.6-5.6,19.3C2.5,49,10.8,53.5,24,53.5
			c0.4,0,0.9,0,1.4,0c11.2-0.2,29.5-4.1,32.1-19.9C58.3,28.3,56.9,23.8,54.1,20.1z"/>
	</g>
	<path d="M40,24.1c1.5,0,2.6-1.2,2.6-2.6c0-1.5-1.2-2.6-2.6-2.6c-1.5,0-2.6,1.2-2.6,2.6C37.3,23,38.5,24.1,40,24.1 M40,26.1
		c-1.5,0-2.7,3.5-2.7,7.9c0,4.4,1.2,7.9,2.7,7.9c1.5,0,2.7-3.5,2.7-7.9C42.7,29.6,41.5,26.1,40,26.1 M28,26.1
		c-4.4,0-7.4,3.5-7.4,7.9c0,4.4,2.9,7.9,7.4,7.9c4.4,0,7.3-3.5,7.3-7.9C35.4,29.6,32.4,26.1,28,26.1 M28,38.1c-2,0-3.1-2.1-3.1-4.2
		c0-2.1,1.1-4.1,3.1-4.1c2,0,3.1,2,3.1,4.1C31.2,36.1,30.1,38.1,28,38.1"/>
</g>
</svg>
